<?xml version="1.0" encoding="utf-8"?>
<!-- Generator: Adobe Adobe Illustrator 29.2.0, SVG Export Plug-In . SVG Version: 6.00 Build 0)  -->
<svg version="1.1" id="Calque_1" xmlns="http://www.w3.org/2000/svg" xmlns:xlink="http://www.w3.org/1999/xlink" x="0px" y="0px"
	 width="566.93px" height="246.61px" viewBox="0 0 566.93 246.61" style="enable-background:new 0 0 566.93 246.61;"
	 xml:space="preserve">
<style type="text/css">
	.st0{fill:#54C8E8;}
	.st1{fill:#7C9AC0;}
	.st2{fill:#4D4084;}
	.st3{fill:#625D9C;}
</style>
<g>
	<path class="st0" d="M193.39,78.43c-1.72,0-3.24-0.84-4.2-2.13l-30.22,10.84c9.66-0.31,19.34,0.22,28.92,1.57
		c0.77-1.61,2.4-2.73,4.29-2.73c0.5,0,0.98,0.1,1.43,0.24c0.24-2.61,0.4-5.24,0.49-7.87C193.86,78.39,193.63,78.43,193.39,78.43z"/>
	<path class="st0" d="M188.11,73.12c0-1.22,0.42-2.32,1.11-3.22c-18.13-9.66-38.25-15.18-58.83-16.15c0.03,0.26,0.05,0.53,0.05,0.8
		c0,1.7-0.65,3.25-1.7,4.42l17.04,24.31c0.75-0.3,1.57-0.47,2.43-0.47c2.3,0,4.32,1.19,5.49,2.99l34.45-12.35
		C188.13,73.34,188.11,73.23,188.11,73.12z"/>
	<path class="st0" d="M88.51,101.05c0.85-0.55,1.86-0.88,2.95-0.88c0.38,0,0.76,0.04,1.12,0.12l26.53-41.19
		c-1.12-1.18-1.81-2.78-1.81-4.54c0-0.27,0.02-0.54,0.05-0.81c-20.13,0.93-39.83,6.23-57.66,15.49c0.94,1.1,1.52,2.54,1.52,4.11
		c0,1.13-0.3,2.18-0.81,3.1L88.51,101.05z"/>
	<path class="st0" d="M126.24,60.7c-0.74,0.29-1.54,0.45-2.37,0.45c-0.78,0-1.52-0.14-2.22-0.39l-26.38,40.96c0,0,0.01,0,0.01,0.01
		c6.53-2.9,13.25-5.41,20.14-7.48c8.63-2.59,17.42-4.46,26.28-5.64c0.17-1.36,0.74-2.59,1.6-3.56L126.24,60.7z"/>
	<path class="st0" d="M85.96,105.7c0-0.85,0.21-1.65,0.55-2.37L58.32,78.65c-0.97,0.63-2.13,1-3.37,1c-0.47,0-0.93-0.06-1.38-0.16
		c0.53,12.93,2.84,25.68,6.8,37.89c0.8-0.43,1.69-0.7,2.66-0.7c1.36,0,2.59,0.5,3.57,1.3c6.2-4.35,12.69-8.28,19.42-11.78
		C86,106.04,85.96,105.88,85.96,105.7z"/>
</g>
<g>
	<path class="st1" d="M192.17,95.59c-2.32,0-4.25-1.66-4.69-3.87c-10.87-1.53-21.85-1.94-32.8-1.31c-0.17,1.09-0.6,2.09-1.22,2.94
		l26.2,31.54c0.63-0.28,1.33-0.45,2.07-0.45c1,0,1.93,0.3,2.71,0.8c3.74-9.56,6.43-19.51,8.02-29.68
		C192.37,95.57,192.28,95.59,192.17,95.59z"/>
	<path class="st1" d="M87.12,109.06c-6.5,3.39-12.78,7.19-18.78,11.4c0.22,0.6,0.36,1.25,0.36,1.93c0,2.72-1.9,4.99-4.44,5.56
		c2.43,5.85,5.23,11.54,8.45,17.03c2.01,3.42,4.18,6.73,6.46,9.96c0.97-1.01,2.27-1.69,3.73-1.85l5.96-42.53
		C88.18,110.18,87.59,109.68,87.12,109.06z"/>
	<path class="st1" d="M126.2,131.76c1.1-0.84,2.46-1.34,3.95-1.34c0.32,0,0.62,0.03,0.93,0.07l13.43-35.62
		c-1.14-0.78-2.02-1.92-2.49-3.25c-8.68,1.17-17.29,3-25.74,5.54c-6.66,2-13.16,4.45-19.48,7.25c0.1,0.42,0.17,0.85,0.17,1.3
		c0,0.74-0.15,1.44-0.41,2.09L126.2,131.76z"/>
</g>
<g>
	<path class="st2" d="M176.89,131.15c-13.54,0.17-27.04,2-40.19,5.45c0.01,0.14,0.02,0.27,0.02,0.41c0,3.34-2.47,6.1-5.68,6.53
		l-5.05,45.15c1.57,0.67,2.8,1.99,3.38,3.62c18.64-11.93,34.32-28.18,45.55-47.35c1.99-3.4,3.82-6.88,5.5-10.43
		C178.74,134.08,177.42,132.81,176.89,131.15z"/>
	<path class="st2" d="M124.46,140.31c-2.44,0.84-4.86,1.72-7.26,2.68c-9.74,3.88-19.04,8.67-27.82,14.25
		c0.21,0.62,0.33,1.29,0.33,1.98c0,2.29-1.24,4.28-3.09,5.35c9,10.66,19.54,19.95,31.28,27.52c0.84-2.09,2.77-3.61,5.09-3.83
		l5.03-44.98C126.51,142.74,125.25,141.68,124.46,140.31z"/>
</g>
<g>
	<path class="st3" d="M151.14,95.31c-0.89,0.45-1.88,0.71-2.94,0.71c-0.29,0-0.58-0.03-0.87-0.06L133.9,131.6
		c0.79,0.55,1.44,1.27,1.93,2.1c13.42-3.53,27.2-5.4,41.03-5.57c0.13-0.44,0.31-0.85,0.54-1.23L151.14,95.31z"/>
	<path class="st3" d="M123.59,137.02c0-1.05,0.25-2.04,0.68-2.92l-29.59-23.92c-0.81,0.59-1.79,0.95-2.85,1.02l-5.93,42.3
		c0.69,0.28,1.31,0.69,1.84,1.19c8.95-5.69,18.43-10.58,28.35-14.53c2.48-0.99,4.99-1.89,7.51-2.75
		C123.6,137.27,123.59,137.15,123.59,137.02z"/>
</g>
<g>
	<path class="st2" d="M242.05,153.76c-0.58,0.15-3.11,0.61-6.07,0.61c-4.61,0-10.88-2.23-10.88-11.6v-5.57
		c0-9.51,6.26-11.6,10.88-11.6c2.96,0,5.5,0.46,6.07,0.61c0.5,0.15,0.84,0.34,0.84,0.87v2.54c0,0.45-0.19,0.8-0.77,0.8
		c0,0-0.04,0-0.08,0c-1.35-0.11-3.96-0.3-6-0.3c-3.23,0-5.57,1.71-5.57,7.09v5.57c0,5.27,2.34,7.09,5.57,7.09
		c2.04,0,4.65-0.19,6-0.3c0.04,0,0.08,0,0.08,0c0.58,0,0.77,0.34,0.77,0.8v2.54C242.89,153.42,242.55,153.61,242.05,153.76z"/>
	<path class="st2" d="M267.22,126.77l-5.84,13.15c-0.73,1.67-1.5,2.43-2.34,2.77v10.61c0,0.42-0.31,0.76-0.73,0.76h-3.84
		c-0.42,0-0.73-0.34-0.73-0.76v-10.61c-0.84-0.34-1.61-1.1-2.34-2.77l-5.8-13.15c-0.04-0.11-0.08-0.23-0.08-0.3
		c0-0.3,0.23-0.57,0.62-0.57h4.27c0.35,0,0.61,0.3,0.73,0.61l4.61,11.3c0.27,0.64,0.5,0.76,0.65,0.76c0.19,0,0.42-0.11,0.69-0.76
		l4.61-11.3c0.11-0.3,0.38-0.61,0.73-0.61h4.23c0.38,0,0.65,0.27,0.65,0.57C267.3,126.58,267.26,126.66,267.22,126.77z"/>
	<path class="st2" d="M279.64,154.36c-3.11,0-5.46-0.19-6.65-0.42c-1.27-0.23-1.85-0.64-1.85-2.05v-23.88c0-1.36,0.5-1.86,1.73-2.05
		c1-0.15,3.42-0.38,6.42-0.38c6.95,0,11.83,1.97,11.83,7.7v0.76c0,2.5-1.19,4.74-3.54,5.72c2.34,0.99,3.73,2.92,3.73,5.76v0.64
		C291.32,152.2,286.79,154.36,279.64,154.36z M285.94,133.59c0-2.65-1.73-3.64-6.65-3.64c-0.92,0-2,0.04-2.81,0.08v7.69h4.88
		c3.57,0,4.57-1.67,4.57-3.6V133.59z M286.09,145.61c0-2.08-1.11-4.02-4.73-4.02h-4.88v8.34c0.92,0,2.34,0.08,3.15,0.08
		c4.92,0,6.46-1.25,6.46-3.9V145.61z"/>
	<path class="st2" d="M312.31,153.83c-1.23,0.19-2.73,0.53-7.3,0.53c-5,0-8.88-1.33-8.88-7.77v-13.23c0-6.44,3.88-7.77,8.88-7.77
		c4.57,0,6.07,0.34,7.3,0.53c0.58,0.08,0.77,0.27,0.77,0.8v2.43c0,0.42-0.35,0.76-0.77,0.76h-7.84c-2.23,0-3.03,0.76-3.03,3.26v4.09
		h10.41c0.42,0,0.77,0.34,0.77,0.76v2.73c0,0.42-0.35,0.76-0.77,0.76h-10.41v4.89c0,2.5,0.81,3.26,3.03,3.26h7.84
		c0.42,0,0.77,0.34,0.77,0.76v2.43C313.08,153.57,312.88,153.76,312.31,153.83z"/>
	<path class="st2" d="M338.56,154.06h-4.69c-0.42,0-0.58-0.38-0.77-0.76l-5.53-10.12h-0.54c-1,0-2.54-0.11-3.42-0.15v10.27
		c0,0.42-0.31,0.76-0.73,0.76h-3.84c-0.42,0-0.77-0.34-0.77-0.76v-26.08c0-0.76,0.46-1.02,1.23-1.14c2-0.3,4.73-0.49,7.53-0.49
		c5.92,0,11.07,2.08,11.07,8.57v0.34c0,4.02-2.03,6.52-5.19,7.73l6.03,11.07c0.08,0.11,0.08,0.23,0.08,0.3
		C339.02,153.87,338.87,154.06,338.56,154.06z M332.79,134.16c0-2.84-1.92-4.06-5.76-4.06c-0.81,0-2.73,0.08-3.42,0.15v8.53
		c0.62,0.04,2.77,0.11,3.42,0.11c3.96,0,5.76-1.06,5.76-4.4V134.16z"/>
	<path class="st2" d="M350.09,154.36c-2.88,0-4.96-0.27-6.8-0.68c-0.39-0.08-0.73-0.34-0.73-0.76v-2.73c0-0.42,0.35-0.72,0.73-0.72
		c0.04,0,0.04,0,0.08,0c1.54,0.19,5.38,0.38,6.8,0.38c3.42,0,4.46-1.21,4.46-3.41c0-1.48-0.73-2.23-3.27-3.71l-5.07-2.99
		c-3.57-2.09-4.53-4.28-4.53-6.94c0-4.17,2.46-7.2,9.61-7.2c2.54,0,6.07,0.38,7.38,0.68c0.38,0.08,0.69,0.34,0.69,0.72v2.8
		c0,0.38-0.27,0.68-0.65,0.68c-0.04,0-0.04,0-0.08,0c-2.54-0.23-5.07-0.38-7.57-0.38c-2.84,0-4.04,0.99-4.04,2.69
		c0,1.25,0.65,2.01,3.15,3.37l4.61,2.54c4.23,2.31,5.34,4.74,5.34,7.73C360.2,150.27,357.78,154.36,350.09,154.36z"/>
	<path class="st2" d="M380.99,153.83c-1.23,0.19-2.73,0.53-7.3,0.53c-5,0-8.88-1.33-8.88-7.77v-13.23c0-6.44,3.88-7.77,8.88-7.77
		c4.57,0,6.07,0.34,7.3,0.53c0.58,0.08,0.77,0.27,0.77,0.8v2.43c0,0.42-0.35,0.76-0.77,0.76h-7.84c-2.23,0-3.03,0.76-3.03,3.26v4.09
		h10.41c0.42,0,0.77,0.34,0.77,0.76v2.73c0,0.42-0.35,0.76-0.77,0.76h-10.41v4.89c0,2.5,0.81,3.26,3.03,3.26h7.84
		c0.42,0,0.77,0.34,0.77,0.76v2.43C381.76,153.57,381.57,153.76,380.99,153.83z"/>
	<path class="st2" d="M403.13,153.76c-0.58,0.15-3.11,0.61-6.07,0.61c-4.61,0-10.88-2.23-10.88-11.6v-5.57
		c0-9.51,6.26-11.6,10.88-11.6c2.96,0,5.49,0.46,6.07,0.61c0.5,0.15,0.84,0.34,0.84,0.87v2.54c0,0.45-0.19,0.8-0.77,0.8
		c0,0-0.04,0-0.08,0c-1.35-0.11-3.96-0.3-5.99-0.3c-3.23,0-5.57,1.71-5.57,7.09v5.57c0,5.27,2.34,7.09,5.57,7.09
		c2.04,0,4.65-0.19,5.99-0.3c0.04,0,0.08,0,0.08,0c0.58,0,0.77,0.34,0.77,0.8v2.54C403.98,153.42,403.63,153.61,403.13,153.76z"/>
	<path class="st2" d="M418.97,154.36c-6.19,0-10.57-2.65-10.57-10.73v-17.02c0-0.42,0.35-0.72,0.77-0.72h3.8
		c0.42,0,0.77,0.3,0.77,0.72v17.02c0,4.32,1.08,6.37,5.22,6.37c4.15,0,5.23-2.05,5.23-6.37v-17.02c0-0.42,0.35-0.72,0.77-0.72h3.8
		c0.42,0,0.77,0.3,0.77,0.72v17.02C429.54,151.71,425.15,154.36,418.97,154.36z"/>
	<path class="st2" d="M455.4,154.06h-4.69c-0.42,0-0.58-0.38-0.77-0.76l-5.53-10.12h-0.54c-1,0-2.54-0.11-3.42-0.15v10.27
		c0,0.42-0.31,0.76-0.73,0.76h-3.84c-0.42,0-0.77-0.34-0.77-0.76v-26.08c0-0.76,0.46-1.02,1.23-1.14c2-0.3,4.73-0.49,7.53-0.49
		c5.92,0,11.07,2.08,11.07,8.57v0.34c0,4.02-2.04,6.52-5.19,7.73l6.03,11.07c0.08,0.11,0.08,0.23,0.08,0.3
		C455.86,153.87,455.71,154.06,455.4,154.06z M449.64,134.16c0-2.84-1.92-4.06-5.77-4.06c-0.81,0-2.73,0.08-3.42,0.15v8.53
		c0.61,0.04,2.77,0.11,3.42,0.11c3.96,0,5.77-1.06,5.77-4.4V134.16z"/>
	<path class="st2" d="M464.78,154.06h-3.8c-0.42,0-0.77-0.34-0.77-0.76v-26.68c0-0.42,0.35-0.72,0.77-0.72h3.8
		c0.42,0,0.77,0.3,0.77,0.72v26.68C465.55,153.72,465.21,154.06,464.78,154.06z"/>
	<path class="st2" d="M488.96,130.3h-6.72v23.01c0,0.42-0.35,0.76-0.77,0.76h-3.8c-0.42,0-0.77-0.34-0.77-0.76V130.3h-6.72
		c-0.42,0-0.77-0.27-0.77-0.68v-2.99c0-0.42,0.35-0.72,0.77-0.72h18.79c0.42,0,0.77,0.3,0.77,0.72v2.99
		C489.72,130.03,489.38,130.3,488.96,130.3z"/>
	<path class="st2" d="M513.29,126.77l-5.84,13.15c-0.73,1.67-1.5,2.43-2.34,2.77v10.61c0,0.42-0.31,0.76-0.73,0.76h-3.84
		c-0.42,0-0.73-0.34-0.73-0.76v-10.61c-0.85-0.34-1.61-1.1-2.34-2.77l-5.8-13.15c-0.04-0.11-0.08-0.23-0.08-0.3
		c0-0.3,0.23-0.57,0.62-0.57h4.27c0.35,0,0.62,0.3,0.73,0.61l4.61,11.3c0.27,0.64,0.5,0.76,0.65,0.76c0.19,0,0.42-0.11,0.69-0.76
		l4.61-11.3c0.12-0.3,0.38-0.61,0.73-0.61h4.23c0.39,0,0.65,0.27,0.65,0.57C513.36,126.58,513.32,126.66,513.29,126.77z"/>
</g>
<g>
	<path class="st0" d="M240.13,111.48c-1.47,0.28-2.83,0.45-5.81,0.45c-4.31,0-9.24-2.28-9.24-10.66v-4.8
		c0-8.45,4.93-10.66,9.24-10.66c2.2,0,4.34,0.31,5.88,0.55c0.31,0.03,0.56,0.14,0.56,0.45v1.76c0,0.21-0.07,0.38-0.42,0.38
		c-0.04,0-0.07,0-0.11,0c-1.26-0.1-3.85-0.31-5.88-0.31c-3.43,0-6.09,1.97-6.09,7.83v4.8c0,5.8,2.66,7.83,6.09,7.83
		c1.99,0,4.51-0.17,5.77-0.28c0.03,0,0.1,0,0.14,0c0.38,0,0.56,0.17,0.56,0.55v1.41C240.83,111.21,240.52,111.41,240.13,111.48z"/>
	<path class="st0" d="M259.06,111.76c-1.33,0.14-4.76,0.17-6.82,0.17c-4.9,0-7.45-1.83-7.45-6.42V92.23c0-4.59,2.56-6.42,7.45-6.42
		c2.07,0,5.35,0.07,6.82,0.21c0.21,0.03,0.35,0.28,0.35,0.48v1.72c0,0.24-0.14,0.41-0.38,0.41h-6.75c-3.71,0-4.3,0.97-4.3,3.59v4.8
		h10.74c0.39,0,0.7,0.31,0.7,0.69v1.31c0,0.38-0.31,0.69-0.7,0.69h-10.74v5.79c0,2.62,0.6,3.59,4.3,3.59h6.75
		c0.24,0,0.38,0.17,0.38,0.41v1.76C259.41,111.48,259.27,111.72,259.06,111.76z"/>
	<path class="st0" d="M281.38,111.69h-2.17c-0.56,0-0.94-0.21-1.12-0.55l-10.81-20.25c-0.04-0.07-0.07-0.1-0.11-0.1
		c-0.03,0-0.03,0.03-0.03,0.1v20.15c0,0.35-0.28,0.66-0.63,0.66h-1.82c-0.35,0-0.63-0.07-0.63-0.41V87.02
		c0-0.55,0.45-0.97,1.02-0.97H267c0.98,0,1.15,0.17,1.44,0.69l10.74,20.15l0.07,0.1c0.03,0,0.03-0.07,0.03-0.1V86.71
		c0-0.35,0.28-0.66,0.63-0.66h1.85c0.39,0,0.63,0.31,0.63,0.66v23.98C282.4,111.24,281.94,111.69,281.38,111.69z"/>
	<path class="st0" d="M302.69,88.75h-6.82V111c0,0.34-0.24,0.69-0.63,0.69h-1.92c-0.35,0-0.63-0.31-0.63-0.69V88.75h-6.82
		c-0.38,0-0.7-0.17-0.7-0.55v-1.52c0-0.34,0.32-0.62,0.7-0.62h16.83c0.38,0,0.66,0.24,0.66,0.62v1.52
		C303.36,88.54,303.08,88.75,302.69,88.75z"/>
	<path class="st0" d="M324.63,111.69h-2.24c-0.42,0-0.63,0-0.91-0.45l-6.26-10.28c-0.11,0-0.21,0-0.31,0c-0.21,0-0.39,0-0.6,0
		c-1.15,0-1.99-0.03-3.85-0.1V111c0,0.34-0.24,0.69-0.63,0.69h-1.89c-0.35,0-0.63-0.31-0.63-0.69V86.85c0-0.48,0.21-0.69,0.84-0.76
		c1.5-0.17,4.13-0.28,6.16-0.28c5.53,0,9.8,1.83,9.8,7.42v0.24c0,3.86-2.31,6.14-5.49,6.97l6.37,10.49c0.07,0.1,0.11,0.21,0.11,0.31
		C325.09,111.48,324.91,111.69,324.63,111.69z M320.96,93.23c0-3.45-2.28-4.59-6.65-4.59c-1.08,0-3.01,0-3.85,0.1v9.45
		c1.54,0.03,3.05,0.07,3.85,0.07c4.3,0,6.65-1.07,6.65-4.79V93.23z"/>
	<path class="st0" d="M343.46,111.76c-1.33,0.14-4.76,0.17-6.82,0.17c-4.9,0-7.45-1.83-7.45-6.42V92.23c0-4.59,2.55-6.42,7.45-6.42
		c2.06,0,5.35,0.07,6.82,0.21c0.21,0.03,0.35,0.28,0.35,0.48v1.72c0,0.24-0.14,0.41-0.39,0.41h-6.75c-3.71,0-4.31,0.97-4.31,3.59
		v4.8h10.74c0.38,0,0.7,0.31,0.7,0.69v1.31c0,0.38-0.32,0.69-0.7,0.69h-10.74v5.79c0,2.62,0.6,3.59,4.31,3.59h6.75
		c0.24,0,0.39,0.17,0.39,0.41v1.76C343.81,111.48,343.67,111.72,343.46,111.76z"/>
	<path class="st0" d="M371.03,99.72h-10.74V111c0,0.38-0.31,0.69-0.7,0.69h-1.79c-0.38,0-0.7-0.31-0.7-0.69V92.23
		c0-4.59,2.55-6.42,7.45-6.42c2.06,0,5.35,0.07,6.82,0.21c0.21,0.03,0.35,0.28,0.35,0.48v1.72c0,0.24-0.14,0.41-0.39,0.41h-6.75
		c-3.71,0-4.31,0.97-4.31,3.59v4.8h10.74c0.38,0,0.7,0.31,0.7,0.69v1.31C371.73,99.41,371.41,99.72,371.03,99.72z"/>
	<path class="st0" d="M384.81,111.93c-5.49,0-9.48-3.17-9.48-10.83v-4.45c0-7.66,3.99-10.83,9.48-10.83c5.49,0,9.45,3.17,9.45,10.83
		v4.45C394.26,108.76,390.31,111.93,384.81,111.93z M391.04,96.65c0-5.8-2.38-8-6.23-8c-3.81,0-6.26,2.21-6.26,8v4.45
		c0,5.8,2.41,8,6.26,8c3.81,0,6.23-2.21,6.23-8V96.65z"/>
	<path class="st0" d="M416.41,111.69h-2.24c-0.42,0-0.63,0-0.91-0.45L407,100.96c-0.11,0-0.21,0-0.31,0c-0.21,0-0.39,0-0.6,0
		c-1.15,0-1.99-0.03-3.85-0.1V111c0,0.34-0.24,0.69-0.63,0.69h-1.89c-0.35,0-0.63-0.31-0.63-0.69V86.85c0-0.48,0.21-0.69,0.84-0.76
		c1.5-0.17,4.13-0.28,6.16-0.28c5.53,0,9.8,1.83,9.8,7.42v0.24c0,3.86-2.31,6.14-5.49,6.97l6.37,10.49c0.07,0.1,0.11,0.21,0.11,0.31
		C416.86,111.48,416.69,111.69,416.41,111.69z M412.74,93.23c0-3.45-2.28-4.59-6.65-4.59c-1.08,0-3.01,0-3.85,0.1v9.45
		c1.54,0.03,3.05,0.07,3.85,0.07c4.3,0,6.65-1.07,6.65-4.79V93.23z"/>
</g>
<g>
	<path class="st0" d="M232.57,192.87c-2.31,0-4.38-0.1-5.71-0.31c-0.8-0.11-1.15-0.42-1.15-1.28V168.3c0-0.79,0.39-1.21,1.12-1.28
		c1.15-0.14,3.29-0.28,5.56-0.28c5.56,0,10.25,1.45,10.25,6.66v0.55c0,2.55-1.36,4.52-3.74,5.42c2.41,0.83,3.88,2.93,3.88,5.59v0.59
		C242.79,191.35,238.03,192.87,232.57,192.87z M239.47,173.41c0-3.31-2.8-4-7.07-4c-1.19,0-2.48,0.07-3.46,0.1v8.56h5.39
		c4.06,0,5.14-1.93,5.14-4.11V173.41z M239.61,184.96c0-2.28-1.15-4.38-5.28-4.38h-5.39v9.49c1.15,0.03,2.41,0.14,3.64,0.14
		c4.34,0,7.03-0.93,7.03-4.66V184.96z"/>
	<path class="st0" d="M261.54,192.69c-1.33,0.14-4.76,0.17-6.82,0.17c-4.9,0-7.45-1.83-7.45-6.42v-13.28c0-4.59,2.56-6.42,7.45-6.42
		c2.07,0,5.35,0.07,6.82,0.21c0.21,0.03,0.35,0.28,0.35,0.48v1.73c0,0.24-0.14,0.41-0.38,0.41h-6.75c-3.71,0-4.3,0.97-4.3,3.59v4.8
		h10.74c0.39,0,0.7,0.31,0.7,0.69v1.31c0,0.38-0.31,0.69-0.7,0.69h-10.74v5.79c0,2.62,0.6,3.59,4.3,3.59h6.75
		c0.24,0,0.38,0.17,0.38,0.42v1.76C261.89,192.42,261.76,192.66,261.54,192.69z"/>
	<path class="st0" d="M280.82,192.56c-0.91,0.14-3.54,0.31-6.82,0.31c-3.74,0-7.45-0.73-7.45-6.42v-18.77c0-0.38,0.31-0.69,0.7-0.69
		h1.79c0.38,0,0.7,0.31,0.7,0.69v18.77c0,2.62,0.6,3.59,4.31,3.59h6.75c0.24,0,0.39,0.17,0.39,0.42v1.62
		C281.17,192.28,281.03,192.52,280.82,192.56z"/>
	<path class="st0" d="M298.53,192.35c-1.71,0.28-3.67,0.52-6.96,0.52c-4.37,0-9.06-2.83-9.06-10.73v-4.62
		c0-8.38,4.9-10.76,9.38-10.76c3.25,0,5.32,0.28,6.65,0.48c0.31,0.03,0.6,0.17,0.6,0.52v1.73c0,0.24-0.14,0.35-0.46,0.35
		c-0.03,0-0.1,0-0.14,0c-2.06-0.17-3.67-0.24-6.65-0.24c-3.25,0-6.19,1.72-6.19,7.94v4.62c0,5.69,2.62,7.94,5.88,7.94
		c2.13,0,3.57-0.14,4.41-0.21V180c0-0.38,0.24-0.69,0.63-0.69h1.89c0.35,0,0.66,0.31,0.66,0.69v11.59
		C299.16,191.97,298.91,192.28,298.53,192.35z"/>
	<path class="st0" d="M307.52,192.62h-1.92c-0.35,0-0.63-0.31-0.63-0.69v-24.29c0-0.35,0.24-0.66,0.63-0.66h1.92
		c0.35,0,0.63,0.28,0.63,0.66v24.29C308.15,192.28,307.91,192.62,307.52,192.62z"/>
	<path class="st0" d="M322.81,192.87c-5.67,0-8.96-2.97-8.96-9.56v-15.66c0-0.35,0.28-0.66,0.66-0.66h1.89
		c0.35,0,0.66,0.28,0.66,0.66v15.66c0,4.45,1.4,6.87,5.74,6.87c4.34,0,5.74-2.38,5.74-6.87v-15.66c0-0.35,0.28-0.66,0.66-0.66h1.89
		c0.35,0,0.66,0.28,0.66,0.66v15.66C331.77,189.9,328.48,192.87,322.81,192.87z"/>
	<path class="st0" d="M357.63,192.62h-1.72c-0.38,0-0.7-0.31-0.7-0.69v-20.46c0-0.07,0-0.1-0.04-0.1c-0.03,0-0.03,0-0.07,0.07
		l-5,10.21c-0.35,0.69-0.7,1-1.57,1h-1.61c-0.88,0-1.23-0.31-1.57-1l-5-10.21c-0.04-0.07-0.04-0.07-0.07-0.07
		c-0.04,0-0.04,0.03-0.04,0.1v20.46c0,0.38-0.31,0.69-0.7,0.69h-1.72c-0.38,0-0.7-0.31-0.7-0.69v-23.94c0-0.55,0.45-1,1.02-1h2.27
		c0.63,0,0.91,0.14,1.12,0.59l5.77,11.83c0.14,0.31,0.24,0.38,0.42,0.38s0.28-0.07,0.42-0.38l5.77-11.83
		c0.21-0.45,0.49-0.59,1.12-0.59h2.27c0.56,0,1.02,0.45,1.02,1v23.94C358.33,192.31,358.01,192.62,357.63,192.62z"/>
</g>
</svg>
